<svg xmlns="http://www.w3.org/2000/svg" xml:space="preserve"
     version="1.1" x="0px" y="0px" viewBox="0 0 100 100">
    <path fill="#512ad4" d="M 95.225 59.315 L 80.78 84.425 c -3.375 5.805 -9.585 9.315 -16.2 9.315 H 35.555 c -6.75 0 -12.825 -3.51 -16.2 -9.315 L 4.775 59.315 c -3.375 -5.805 -3.375 -12.96 0 -18.765 l 14.445 -25.11 c 3.375 -5.805 9.585 -9.315 16.2 -9.315 h 29.025 c 6.75 0 12.825 3.51 16.2 9.315 l 14.445 25.11 C 98.6 46.49 98.6 53.51 95.225 59.315 z"/>
    <path fill="white" d="M 46.72 61.3 l 0 8.64 c 0 4.86 -6.48 4.86 -6.48 0 l 0 -8.64 l -3.78 0 c -4.86 0 -4.86 -7.02 0 -7.02 l 3.78 0 l 0 -7.56 l -3.78 0 c -4.86 0 -4.86 -7.02 0 -7.02 l 3.78 0 l 0 -8.64 c 0 -4.86 6.48 -4.86 6.48 0 l 0 8.64 l 7.02 0 l 0 -8.64 c 0 -4.86 7.02 -4.86 7.02 0 l 0 8.64 l 3.78 0 c 4.86 0 4.32 7.02 0 7.02 l -3.78 0 l 0 7.56 l 3.78 0 c 4.32 0 4.86 7.02 0 7.02 l -3.78 0 l 0 8.64 c 0 4.86 -7.02 4.86 -7.02 0 l 0 -8.64 l -7.02 0 z m 0 -14.58 l 0 7.56 l 7.02 0 l 0 -7.56 l -7.02 0 z"/>
</svg>