<svg xmlns="http://www.w3.org/2000/svg" xml:space="preserve"
     version="1.1" x="0px" y="0px" viewBox="0 0 100 100">
    <path fill="#68217a" d="M 95.225 59.315 L 80.78 84.425 c -3.375 5.805 -9.585 9.315 -16.2 9.315 H 35.555 c -6.75 0 -12.825 -3.51 -16.2 -9.315 L 4.775 59.315 c -3.375 -5.805 -3.375 -12.96 0 -18.765 l 14.445 -25.11 c 3.375 -5.805 9.585 -9.315 16.2 -9.315 h 29.025 c 6.75 0 12.825 3.51 16.2 9.315 l 14.445 25.11 C 98.6 46.49 98.6 53.51 95.225 59.315 z"/>
    <path fill="white" d="M 44.96 64.4 l 0 11.52 c 0 6.48 -8.64 6.48 -8.64 0 l 0 -11.52 l -5.04 0 c -6.48 0 -6.48 -9.36 0 -9.36 l 5.04 0 l 0 -10.08 l -5.04 0 c -6.48 0 -6.48 -9.36 0 -9.36 l 5.04 0 l 0 -11.52 c 0 -6.48 8.64 -6.48 8.64 0 l 0 11.52 l 9.36 0 l 0 -11.52 c 0 -6.48 9.36 -6.48 9.36 0 l 0 11.52 l 5.04 0 c 6.48 0 5.76 9.36 0 9.36 l -5.04 0 l 0 10.08 l 5.04 0 c 5.76 0 6.48 9.36 0 9.36 l -5.04 0 l 0 11.52 c 0 6.48 -9.36 6.48 -9.36 0 l 0 -11.52 l -9.36 0 z m 0 -19.44 l 0 10.08 l 9.36 0 l 0 -10.08 l -9.36 0 z"/>
</svg>